# xmcd
#
# Track frame offsets:
# 150
# 43056
# 79873
# 116282
# 153405
# 187603
#
# Disc length: 2895 seconds
#
# Revision: 0
# Processed by: cddbd v1.5.2PL0 Copyright (c) Steve Scherf et al.
# Submitted via: Audion 3.0.2 (http://www.panic.com/audion/)
#
DISCID=3b0b4d06
DTITLE=Pat Metheny Group  - Travels Vol. 1
DYEAR=1900
DGENRE=
TTITLE0=Are You Going With Me?
TTITLE1=The Fields, The Sky
TTITLE2=Goodbye 
TTITLE3=Phase Dance 
TTITLE4=Straight On Red 
TTITLE5=Farmer's Trust 
EXTD=
EXTT0=
EXTT1=
EXTT2=
EXTT3=
EXTT4=
EXTT5=
PLAYORDER=
